<svg viewBox="0 0 512 512" version="1.1" xmlns="http://www.w3.org/2000/svg" desc="Created with imagetracer.js version 1.2.6" ><path fill="#000000" stroke="rgb(0,0,0)" stroke-width="0" opacity="1" d="M 313.5 82 Q 329.9 81.1 335 91.5 Q 339.1 96 338 105.5 L 335 113.5 L 203 245.5 L 333 375.5 Q 338 380.5 338 390.5 L 337 395.5 L 332 404 L 322.5 409 L 311.5 409 L 305.5 406 L 157 257.5 Q 152.2 252.3 154 240.5 L 159 231.5 L 303.5 87 L 313.5 82 Z " /><path fill="#000000" stroke="rgb(0,0,0)" stroke-width="0" opacity="0" d="M 0 0 L 512 0 L 512 512 L 0 512 L 0 0 Z M 314 82 L 304 87 L 159 232 L 154 241 Q 152 252 157 258 L 306 406 L 312 409 L 323 409 L 332 404 L 337 396 L 338 391 Q 338 380 333 376 L 203 246 L 335 114 L 338 106 Q 339 96 335 92 Q 330 81 314 82 Z " /></svg>